<svg xmlns="http://www.w3.org/2000/svg" xmlns:xlink="http://www.w3.org/1999/xlink" contentStyleType="text/css" data-diagram-type="CLASS" height="739px" preserveAspectRatio="none" style="width:594px;height:739px;background:#FFFFFF;" version="1.1" viewBox="0 0 594 739" width="594px" zoomAndPan="magnify"><title>Consumption-Thesis - ER Diagram</title><defs/><g><g class="title" data-source-line="3"><text fill="#000000" font-family="sans-serif" font-size="14" font-weight="bold" lengthAdjust="spacing" textLength="231.0205" x="174.543" y="24.5332">Consumption-Thesis - ER Diagram</text></g><!--class CarEntry--><g class="entity" data-entity="CarEntry" data-source-line="5" data-uid="ent0002" id="entity_CarEntry"><rect fill="#F1F1F1" height="171.2656" rx="2.5" ry="2.5" style="stroke:#181818;stroke-width:0.5;" width="160.6133" x="264" y="45.6094"/><ellipse cx="312.4395" cy="61.6094" fill="#ADD1B2" rx="11" ry="11" style="stroke:#181818;stroke-width:1;"/><path d="M311.2988,62.4063 L311.2988,64.9063 L315.627,64.9063 L315.627,63.9844 Q315.627,63.375 315.8691,63.1094 Q316.1113,62.8438 316.4863,62.8438 Q316.8613,62.8438 317.0957,63.1094 Q317.3301,63.375 317.3301,63.9844 L317.3301,66.6094 L309.3301,66.6094 Q308.7051,66.6094 308.4473,66.375 Q308.1895,66.1406 308.1895,65.75 Q308.1895,65.375 308.4551,65.1406 Q308.7207,64.9063 309.3301,64.9063 L309.5957,64.9063 L309.5957,58.25 L309.3301,58.25 Q308.7051,58.25 308.4473,58.0156 Q308.1895,57.7813 308.1895,57.3906 Q308.1895,57.0156 308.4473,56.7813 Q308.7051,56.5469 309.3301,56.5469 L316.9551,56.5469 L316.9551,59.1406 Q316.9551,59.75 316.7285,60.0078 Q316.502,60.2656 316.1113,60.2656 Q315.7363,60.2656 315.502,60.0078 Q315.2676,59.75 315.2676,59.1406 L315.2676,58.25 L311.2988,58.25 L311.2988,60.7031 L312.7832,60.7031 Q312.7832,60.0469 312.9082,59.8594 Q313.1738,59.4531 313.6426,59.4531 Q314.0176,59.4531 314.252,59.7109 Q314.4863,59.9688 314.4863,60.5781 L314.4863,62.5469 Q314.4863,63.0938 314.3613,63.2813 Q314.0957,63.6719 313.6426,63.6719 Q313.1738,63.6719 312.9082,63.2656 Q312.7832,63.0781 312.7832,62.4063 L311.2988,62.4063 Z " fill="#000000"/><text fill="#000000" font-family="sans-serif" font-size="14" lengthAdjust="spacing" textLength="55.2344" x="332.9395" y="67.3379">CarEntry</text><line style="stroke:#181818;stroke-width:0.5;" x1="265" x2="423.6133" y1="77.6094" y2="77.6094"/><ellipse cx="275" cy="91.9141" fill="#000000" rx="3" ry="3" style="stroke:#000000;stroke-width:1;"/><text fill="#000000" font-family="sans-serif" font-size="14" lengthAdjust="spacing" textLength="56.7998" x="284" y="96.1426">id : string</text><line style="stroke:#181818;stroke-width:1;" x1="265" x2="423.6133" y1="103.2188" y2="103.2188"/><text fill="#000000" font-family="sans-serif" font-size="14" lengthAdjust="spacing" textLength="80.1377" x="270" y="121.752">make : string</text><text fill="#000000" font-family="sans-serif" font-size="14" lengthAdjust="spacing" textLength="84.0342" x="270" y="139.3613">model : string</text><text fill="#000000" font-family="sans-serif" font-size="14" lengthAdjust="spacing" textLength="53.6895" x="270" y="156.9707">year : int</text><text fill="#000000" font-family="sans-serif" font-size="14" lengthAdjust="spacing" textLength="148.6133" x="270" y="174.5801">ownerUsername : string</text><text fill="#000000" font-family="sans-serif" font-size="14" lengthAdjust="spacing" textLength="112.8408" x="270" y="192.1895">drivenKm : double</text><text fill="#000000" font-family="sans-serif" font-size="14" lengthAdjust="spacing" textLength="98.0684" x="270" y="209.7988">active : boolean</text></g><!--class FuelEntry--><g class="entity" data-entity="FuelEntry" data-source-line="16" data-uid="ent0003" id="entity_FuelEntry"><rect fill="#F1F1F1" height="153.6563" rx="2.5" ry="2.5" style="stroke:#181818;stroke-width:0.5;" width="124.8066" x="7" y="303.1094"/><ellipse cx="36.8034" cy="319.1094" fill="#ADD1B2" rx="11" ry="11" style="stroke:#181818;stroke-width:1;"/><path d="M35.6628,319.9063 L35.6628,322.4063 L39.9909,322.4063 L39.9909,321.4844 Q39.9909,320.875 40.2331,320.6094 Q40.4753,320.3438 40.8503,320.3438 Q41.2253,320.3438 41.4597,320.6094 Q41.694,320.875 41.694,321.4844 L41.694,324.1094 L33.694,324.1094 Q33.069,324.1094 32.8112,323.875 Q32.5534,323.6406 32.5534,323.25 Q32.5534,322.875 32.819,322.6406 Q33.0847,322.4063 33.694,322.4063 L33.9597,322.4063 L33.9597,315.75 L33.694,315.75 Q33.069,315.75 32.8112,315.5156 Q32.5534,315.2813 32.5534,314.8906 Q32.5534,314.5156 32.8112,314.2813 Q33.069,314.0469 33.694,314.0469 L41.319,314.0469 L41.319,316.6406 Q41.319,317.25 41.0925,317.5078 Q40.8659,317.7656 40.4753,317.7656 Q40.1003,317.7656 39.8659,317.5078 Q39.6315,317.25 39.6315,316.6406 L39.6315,315.75 L35.6628,315.75 L35.6628,318.2031 L37.1472,318.2031 Q37.1472,317.5469 37.2722,317.3594 Q37.5378,316.9531 38.0065,316.9531 Q38.3815,316.9531 38.6159,317.2109 Q38.8503,317.4688 38.8503,318.0781 L38.8503,320.0469 Q38.8503,320.5938 38.7253,320.7813 Q38.4597,321.1719 38.0065,321.1719 Q37.5378,321.1719 37.2722,320.7656 Q37.1472,320.5781 37.1472,319.9063 L35.6628,319.9063 Z " fill="#000000"/><text fill="#000000" font-family="sans-serif" font-size="14" lengthAdjust="spacing" textLength="59.9102" x="54.0931" y="324.8379">FuelEntry</text><line style="stroke:#181818;stroke-width:0.5;" x1="8" x2="130.8066" y1="335.1094" y2="335.1094"/><ellipse cx="18" cy="349.4141" fill="#000000" rx="3" ry="3" style="stroke:#000000;stroke-width:1;"/><text fill="#000000" font-family="sans-serif" font-size="14" lengthAdjust="spacing" textLength="56.7998" x="27" y="353.6426">id : string</text><text fill="#000000" font-family="sans-serif" font-size="14" lengthAdjust="spacing" textLength="98.8066" x="27" y="371.252">carId : string FK</text><text fill="#000000" font-family="sans-serif" font-size="14" lengthAdjust="spacing" textLength="92.6133" x="27" y="388.8613">date : datetime</text><text fill="#000000" font-family="sans-serif" font-size="14" lengthAdjust="spacing" textLength="83.2686" x="27" y="406.4707">liters : double</text><text fill="#000000" font-family="sans-serif" font-size="14" lengthAdjust="spacing" textLength="85.5996" x="27" y="424.0801">odometer : int</text><text fill="#000000" font-family="sans-serif" font-size="14" lengthAdjust="spacing" textLength="79.3857" x="27" y="441.6895">cost : double</text><line style="stroke:#181818;stroke-width:0.5;" x1="8" x2="130.8066" y1="448.7656" y2="448.7656"/></g><!--class ServiceItem--><g class="entity" data-entity="ServiceItem" data-source-line="25" data-uid="ent0004" id="entity_ServiceItem"><rect fill="#F1F1F1" height="171.2656" rx="2.5" ry="2.5" style="stroke:#181818;stroke-width:0.5;" width="143.4961" x="167" y="294.6094"/><ellipse cx="198.9137" cy="310.6094" fill="#ADD1B2" rx="11" ry="11" style="stroke:#181818;stroke-width:1;"/><path d="M197.773,311.4063 L197.773,313.9063 L202.1012,313.9063 L202.1012,312.9844 Q202.1012,312.375 202.3434,312.1094 Q202.5855,311.8438 202.9605,311.8438 Q203.3355,311.8438 203.5699,312.1094 Q203.8043,312.375 203.8043,312.9844 L203.8043,315.6094 L195.8043,315.6094 Q195.1793,315.6094 194.9215,315.375 Q194.6637,315.1406 194.6637,314.75 Q194.6637,314.375 194.9293,314.1406 Q195.1949,313.9063 195.8043,313.9063 L196.0699,313.9063 L196.0699,307.25 L195.8043,307.25 Q195.1793,307.25 194.9215,307.0156 Q194.6637,306.7813 194.6637,306.3906 Q194.6637,306.0156 194.9215,305.7813 Q195.1793,305.5469 195.8043,305.5469 L203.4293,305.5469 L203.4293,308.1406 Q203.4293,308.75 203.2027,309.0078 Q202.9762,309.2656 202.5855,309.2656 Q202.2105,309.2656 201.9762,309.0078 Q201.7418,308.75 201.7418,308.1406 L201.7418,307.25 L197.773,307.25 L197.773,309.7031 L199.2574,309.7031 Q199.2574,309.0469 199.3824,308.8594 Q199.648,308.4531 200.1168,308.4531 Q200.4918,308.4531 200.7262,308.7109 Q200.9605,308.9688 200.9605,309.5781 L200.9605,311.5469 Q200.9605,312.0938 200.8355,312.2813 Q200.5699,312.6719 200.1168,312.6719 Q199.648,312.6719 199.3824,312.2656 Q199.2574,312.0781 199.2574,311.4063 L197.773,311.4063 Z " fill="#000000"/><text fill="#000000" font-family="sans-serif" font-size="14" lengthAdjust="spacing" textLength="73.9102" x="216.6723" y="316.3379">ServiceItem</text><line style="stroke:#181818;stroke-width:0.5;" x1="168" x2="309.4961" y1="326.6094" y2="326.6094"/><ellipse cx="178" cy="340.9141" fill="#000000" rx="3" ry="3" style="stroke:#000000;stroke-width:1;"/><text fill="#000000" font-family="sans-serif" font-size="14" lengthAdjust="spacing" textLength="56.7998" x="187" y="345.1426">id : string</text><text fill="#000000" font-family="sans-serif" font-size="14" lengthAdjust="spacing" textLength="98.8066" x="187" y="362.752">carId : string FK</text><text fill="#000000" font-family="sans-serif" font-size="14" lengthAdjust="spacing" textLength="80.9238" x="187" y="380.3613">name : string</text><text fill="#000000" font-family="sans-serif" font-size="14" lengthAdjust="spacing" textLength="69.2412" x="187" y="397.9707">lastKm : int</text><text fill="#000000" font-family="sans-serif" font-size="14" lengthAdjust="spacing" textLength="116.7236" x="187" y="415.5801">lastDate : datetime</text><text fill="#000000" font-family="sans-serif" font-size="14" lengthAdjust="spacing" textLength="92.5859" x="187" y="433.1895">intervalKm : int</text><text fill="#000000" font-family="sans-serif" font-size="14" lengthAdjust="spacing" textLength="117.4961" x="187" y="450.7988">intervalMonths : int</text><line style="stroke:#181818;stroke-width:0.5;" x1="168" x2="309.4961" y1="457.875" y2="457.875"/></g><!--class Reminder--><g class="entity" data-entity="Reminder" data-source-line="35" data-uid="ent0005" id="entity_Reminder"><rect fill="#F1F1F1" height="188.875" rx="2.5" ry="2.5" style="stroke:#181818;stroke-width:0.5;" width="174.6133" x="222" y="543.6094"/><ellipse cx="274.7119" cy="559.6094" fill="#ADD1B2" rx="11" ry="11" style="stroke:#181818;stroke-width:1;"/><path d="M273.5713,560.4063 L273.5713,562.9063 L277.8994,562.9063 L277.8994,561.9844 Q277.8994,561.375 278.1416,561.1094 Q278.3838,560.8438 278.7588,560.8438 Q279.1338,560.8438 279.3682,561.1094 Q279.6025,561.375 279.6025,561.9844 L279.6025,564.6094 L271.6025,564.6094 Q270.9775,564.6094 270.7197,564.375 Q270.4619,564.1406 270.4619,563.75 Q270.4619,563.375 270.7275,563.1406 Q270.9932,562.9063 271.6025,562.9063 L271.8682,562.9063 L271.8682,556.25 L271.6025,556.25 Q270.9775,556.25 270.7197,556.0156 Q270.4619,555.7813 270.4619,555.3906 Q270.4619,555.0156 270.7197,554.7813 Q270.9775,554.5469 271.6025,554.5469 L279.2275,554.5469 L279.2275,557.1406 Q279.2275,557.75 279.001,558.0078 Q278.7744,558.2656 278.3838,558.2656 Q278.0088,558.2656 277.7744,558.0078 Q277.54,557.75 277.54,557.1406 L277.54,556.25 L273.5713,556.25 L273.5713,558.7031 L275.0557,558.7031 Q275.0557,558.0469 275.1807,557.8594 Q275.4463,557.4531 275.915,557.4531 Q276.29,557.4531 276.5244,557.7109 Q276.7588,557.9688 276.7588,558.5781 L276.7588,560.5469 Q276.7588,561.0938 276.6338,561.2813 Q276.3682,561.6719 275.915,561.6719 Q275.4463,561.6719 275.1807,561.2656 Q275.0557,561.0781 275.0557,560.4063 L273.5713,560.4063 Z " fill="#000000"/><text fill="#000000" font-family="sans-serif" font-size="14" lengthAdjust="spacing" textLength="60.6895" x="295.2119" y="565.3379">Reminder</text><line style="stroke:#181818;stroke-width:0.5;" x1="223" x2="395.6133" y1="575.6094" y2="575.6094"/><ellipse cx="233" cy="589.9141" fill="#000000" rx="3" ry="3" style="stroke:#000000;stroke-width:1;"/><text fill="#000000" font-family="sans-serif" font-size="14" lengthAdjust="spacing" textLength="56.7998" x="242" y="594.1426">id : string</text><text fill="#000000" font-family="sans-serif" font-size="14" lengthAdjust="spacing" textLength="98.8066" x="242" y="611.752">carId : string FK</text><text fill="#000000" font-family="sans-serif" font-size="14" lengthAdjust="spacing" textLength="67.6895" x="242" y="629.3613">title : string</text><text fill="#000000" font-family="sans-serif" font-size="14" lengthAdjust="spacing" textLength="113.6064" x="242" y="646.9707">description : string</text><text fill="#000000" font-family="sans-serif" font-size="14" lengthAdjust="spacing" textLength="92.6133" x="242" y="664.5801">date : datetime</text><text fill="#000000" font-family="sans-serif" font-size="14" lengthAdjust="spacing" textLength="146.3027" x="242" y="682.1895">snoozedUntil : datetime</text><text fill="#000000" font-family="sans-serif" font-size="14" lengthAdjust="spacing" textLength="147.8545" x="242" y="699.7988">previousDate : datetime</text><text fill="#000000" font-family="sans-serif" font-size="14" lengthAdjust="spacing" textLength="148.6133" x="242" y="717.4082">ownerUsername : string</text><line style="stroke:#181818;stroke-width:0.5;" x1="223" x2="395.6133" y1="724.4844" y2="724.4844"/></g><!--class ExtraCost--><g class="entity" data-entity="ExtraCost" data-source-line="46" data-uid="ent0006" id="entity_ExtraCost"><rect fill="#F1F1F1" height="153.6563" rx="2.5" ry="2.5" style="stroke:#181818;stroke-width:0.5;" width="139.6064" x="447.5" y="303.1094"/><ellipse cx="483.265" cy="319.1094" fill="#ADD1B2" rx="11" ry="11" style="stroke:#181818;stroke-width:1;"/><path d="M482.1244,319.9063 L482.1244,322.4063 L486.4525,322.4063 L486.4525,321.4844 Q486.4525,320.875 486.6947,320.6094 Q486.9369,320.3438 487.3119,320.3438 Q487.6869,320.3438 487.9213,320.6094 Q488.1557,320.875 488.1557,321.4844 L488.1557,324.1094 L480.1557,324.1094 Q479.5307,324.1094 479.2729,323.875 Q479.015,323.6406 479.015,323.25 Q479.015,322.875 479.2807,322.6406 Q479.5463,322.4063 480.1557,322.4063 L480.4213,322.4063 L480.4213,315.75 L480.1557,315.75 Q479.5307,315.75 479.2729,315.5156 Q479.015,315.2813 479.015,314.8906 Q479.015,314.5156 479.2729,314.2813 Q479.5307,314.0469 480.1557,314.0469 L487.7807,314.0469 L487.7807,316.6406 Q487.7807,317.25 487.5541,317.5078 Q487.3275,317.7656 486.9369,317.7656 Q486.5619,317.7656 486.3275,317.5078 Q486.0932,317.25 486.0932,316.6406 L486.0932,315.75 L482.1244,315.75 L482.1244,318.2031 L483.6088,318.2031 Q483.6088,317.5469 483.7338,317.3594 Q483.9994,316.9531 484.4682,316.9531 Q484.8432,316.9531 485.0775,317.2109 Q485.3119,317.4688 485.3119,318.0781 L485.3119,320.0469 Q485.3119,320.5938 485.1869,320.7813 Q484.9213,321.1719 484.4682,321.1719 Q483.9994,321.1719 483.7338,320.7656 Q483.6088,320.5781 483.6088,319.9063 L482.1244,319.9063 Z " fill="#000000"/><text fill="#000000" font-family="sans-serif" font-size="14" lengthAdjust="spacing" textLength="61.4619" x="501.8795" y="324.8379">ExtraCost</text><line style="stroke:#181818;stroke-width:0.5;" x1="448.5" x2="586.1064" y1="335.1094" y2="335.1094"/><ellipse cx="458.5" cy="349.4141" fill="#000000" rx="3" ry="3" style="stroke:#000000;stroke-width:1;"/><text fill="#000000" font-family="sans-serif" font-size="14" lengthAdjust="spacing" textLength="56.7998" x="467.5" y="353.6426">id : string</text><text fill="#000000" font-family="sans-serif" font-size="14" lengthAdjust="spacing" textLength="98.8066" x="467.5" y="371.252">carId : string FK</text><text fill="#000000" font-family="sans-serif" font-size="14" lengthAdjust="spacing" textLength="100.4063" x="467.5" y="388.8613">amount : double</text><text fill="#000000" font-family="sans-serif" font-size="14" lengthAdjust="spacing" textLength="92.6133" x="467.5" y="406.4707">date : datetime</text><text fill="#000000" font-family="sans-serif" font-size="14" lengthAdjust="spacing" textLength="99.5996" x="467.5" y="424.0801">category : string</text><text fill="#000000" font-family="sans-serif" font-size="14" lengthAdjust="spacing" textLength="113.6064" x="467.5" y="441.6895">description : string</text><line style="stroke:#181818;stroke-width:0.5;" x1="448.5" x2="586.1064" y1="448.7656" y2="448.7656"/></g><g class="entity" data-entity="GMN12" data-source-line="62" data-uid="ent0013" id="entity_GMN12"><path d="M68,77.1094 L68,185.2188 A0,0 0 0 0 68,185.2188 L229.1563,185.2188 A0,0 0 0 0 229.1563,185.2188 L229.1563,135.1094 L263.93,131.1094 L229.1563,127.1094 L229.1563,87.1094 L219.1563,77.1094 L68,77.1094 A0,0 0 0 0 68,77.1094" fill="#FEFFDD" style="stroke:#181818;stroke-width:0.5;"/><path d="M219.1563,77.1094 L219.1563,87.1094 L229.1563,87.1094 L219.1563,77.1094" fill="#FEFFDD" style="stroke:#181818;stroke-width:0.5;"/><text fill="#000000" font-family="sans-serif" font-size="13" lengthAdjust="spacing" textLength="67.1963" x="74" y="95.6045">Collections:</text><text fill="#000000" font-family="sans-serif" font-size="13" lengthAdjust="spacing" textLength="132.1963" x="74" y="111.9561">- CarEntrys (collection)</text><text fill="#000000" font-family="sans-serif" font-size="13" lengthAdjust="spacing" textLength="140.1563" x="74" y="128.3076">- FuelEntries (collection)</text><text fill="#000000" font-family="sans-serif" font-size="13" lengthAdjust="spacing" textLength="124.2554" x="74" y="144.6592">- Services (collection)</text><text fill="#000000" font-family="sans-serif" font-size="13" lengthAdjust="spacing" textLength="137.2617" x="74" y="161.0107">- Reminders (collection)</text><text fill="#000000" font-family="sans-serif" font-size="13" lengthAdjust="spacing" textLength="137.979" x="74" y="177.3623">- ExtraCosts (collection)</text></g><!--link CarEntry to FuelEntry--><g class="link" data-entity-1="CarEntry" data-entity-2="FuelEntry" data-source-line="55" data-uid="lnk7" id="link_CarEntry_FuelEntry"><path codeLine="55" d="M257.8253,207.1297 C251.9453,212.1097 252.2,211.8694 246.5,216.6094 C203.99,252.0094 190.17,257.0994 149.5,294.6094 C143.71,299.9494 150.5808,292.9344 144.7708,298.7144" fill="none" id="CarEntry-FuelEntry" style="stroke:#181818;stroke-width:1;"/><line style="stroke:#181818;stroke-width:1;" x1="258.2925" x2="263.4628" y1="201.4922" y2="207.5969"/><line style="stroke:#181818;stroke-width:1;" x1="256.0032" x2="261.1735" y1="203.4311" y2="209.5358"/><line style="stroke:#181818;stroke-width:1;" x1="257.8253" x2="263.93" y1="207.1297" y2="201.9594"/><line style="stroke:#181818;stroke-width:1;" x1="137.6815" x2="136.2416" y1="305.7672" y2="315.663"/><line style="stroke:#181818;stroke-width:1;" x1="137.6815" x2="127.7784" y1="305.7672" y2="307.1558"/><line style="stroke:#181818;stroke-width:1;" x1="137.6815" x2="132.01" y1="305.7672" y2="311.4094"/><ellipse cx="141.9351" cy="301.5355" fill="none" rx="4" ry="4" style="stroke:#181818;stroke-width:1;"/><text fill="#000000" font-family="sans-serif" font-size="13" lengthAdjust="spacing" textLength="30.3481" x="208.5" y="261.1045">owns</text></g><!--link CarEntry to ServiceItem--><g class="link" data-entity-1="CarEntry" data-entity-2="ServiceItem" data-source-line="56" data-uid="lnk8" id="link_CarEntry_ServiceItem"><path codeLine="56" d="M305.0148,224.1209 C294.2248,249.2609 292.6717,252.8895 281.8817,278.0195" fill="none" id="CarEntry-ServiceItem" style="stroke:#181818;stroke-width:1;"/><line style="stroke:#181818;stroke-width:1;" x1="302.9166" x2="310.2681" y1="218.8675" y2="222.0227"/><line style="stroke:#181818;stroke-width:1;" x1="301.7334" x2="309.0849" y1="221.6243" y2="224.7796"/><line style="stroke:#181818;stroke-width:1;" x1="305.0148" x2="308.17" y1="224.1209" y2="216.7694"/><line style="stroke:#181818;stroke-width:1;" x1="277.9363" x2="280.2933" y1="287.2083" y2="296.9266"/><line style="stroke:#181818;stroke-width:1;" x1="277.9363" x2="269.2667" y1="287.2083" y2="292.1922"/><line style="stroke:#181818;stroke-width:1;" x1="277.9363" x2="274.78" y1="287.2083" y2="294.5594"/><ellipse cx="280.3035" cy="281.6951" fill="none" rx="4" ry="4" style="stroke:#181818;stroke-width:1;"/><text fill="#000000" font-family="sans-serif" font-size="13" lengthAdjust="spacing" textLength="30.3481" x="296.5" y="261.1045">owns</text></g><!--link CarEntry to Reminder--><g class="link" data-entity-1="CarEntry" data-entity-2="Reminder" data-source-line="57" data-uid="lnk9" id="link_CarEntry_Reminder"><path codeLine="57" d="M353.8734,224.7443 C360.0434,302.4243 364.09,412.4694 348.5,513.6094 C346.99,523.3894 349.2445,515.994 346.7345,525.964" fill="none" id="CarEntry-Reminder" style="stroke:#181818;stroke-width:1;"/><line style="stroke:#181818;stroke-width:1;" x1="349.5693" x2="357.5442" y1="221.0735" y2="220.4401"/><line style="stroke:#181818;stroke-width:1;" x1="349.8068" x2="357.7817" y1="224.0641" y2="223.4307"/><line style="stroke:#181818;stroke-width:1;" x1="353.8734" x2="353.24" y1="224.7443" y2="216.7694"/><line style="stroke:#181818;stroke-width:1;" x1="344.2931" x2="348.1584" y1="535.6614" y2="544.8842"/><line style="stroke:#181818;stroke-width:1;" x1="344.2931" x2="336.5216" y1="535.6614" y2="541.9546"/><line style="stroke:#181818;stroke-width:1;" x1="344.2931" x2="342.34" y1="535.6614" y2="543.4194"/><ellipse cx="345.7579" cy="529.843" fill="none" rx="4" ry="4" style="stroke:#181818;stroke-width:1;"/><text fill="#000000" font-family="sans-serif" font-size="13" lengthAdjust="spacing" textLength="30.3481" x="360.5" y="385.6045">owns</text></g><!--link CarEntry to ExtraCost--><g class="link" data-entity-1="CarEntry" data-entity-2="ExtraCost" data-source-line="58" data-uid="lnk10" id="link_CarEntry_ExtraCost"><path codeLine="58" d="M408.3807,223.3211 C427.9507,251.2511 434.6648,260.8352 453.7548,288.0952" fill="none" id="CarEntry-ExtraCost" style="stroke:#181818;stroke-width:1;"/><line style="stroke:#181818;stroke-width:1;" x1="402.8095" x2="409.3612" y1="222.3406" y2="217.7499"/><line style="stroke:#181818;stroke-width:1;" x1="404.531" x2="411.0827" y1="224.7975" y2="220.2068"/><line style="stroke:#181818;stroke-width:1;" x1="408.3807" x2="403.79" y1="223.3211" y2="216.7694"/><line style="stroke:#181818;stroke-width:1;" x1="459.491" x2="468.9947" y1="296.2864" y2="299.3976"/><line style="stroke:#181818;stroke-width:1;" x1="459.491" x2="459.1653" y1="296.2864" y2="306.2811"/><line style="stroke:#181818;stroke-width:1;" x1="459.491" x2="464.08" y1="296.2864" y2="302.8394"/><ellipse cx="456.0493" cy="291.3717" fill="none" rx="4" ry="4" style="stroke:#181818;stroke-width:1;"/><text fill="#000000" font-family="sans-serif" font-size="13" lengthAdjust="spacing" textLength="30.3481" x="437.5" y="261.1045">owns</text></g><!--link ServiceItem to Reminder--><g class="link" data-entity-1="ServiceItem" data-entity-2="Reminder" data-source-line="59" data-uid="lnk11" id="link_ServiceItem_Reminder"><path codeLine="59" d="M264.0784,473.3483 C270.9884,498.2583 271.6384,500.5944 278.6984,526.0444" fill="none" id="ServiceItem-Reminder" style="stroke:#181818;stroke-width:1;"/><line style="stroke:#181818;stroke-width:1;" x1="259.1548" x2="266.8637" y1="470.563" y2="468.4246"/><line style="stroke:#181818;stroke-width:1;" x1="259.9567" x2="267.6656" y1="473.4539" y2="471.3154"/><line style="stroke:#181818;stroke-width:1;" x1="264.0784" x2="261.94" y1="473.3483" y2="465.6394"/><line style="stroke:#181818;stroke-width:1;" x1="281.3715" x2="289.2917" y1="535.6805" y2="541.7855"/><line style="stroke:#181818;stroke-width:1;" x1="281.3715" x2="277.7283" y1="535.6805" y2="544.9932"/><line style="stroke:#181818;stroke-width:1;" x1="281.3715" x2="283.51" y1="535.6805" y2="543.3894"/><ellipse cx="279.7676" cy="529.8988" fill="none" rx="4" ry="4" style="stroke:#181818;stroke-width:1;"/><text fill="#000000" font-family="sans-serif" font-size="13" lengthAdjust="spacing" textLength="64.3208" x="275.5" y="510.1045">can_create</text></g><!--SRC=[ZPB1KXin38RlVWer9zAPVG5k9OGP1hXGE3F6LeAdjiJ8tf00VVTg2UjisARDPNVrIvQ-Vwrl7XU14Ev-d5tFJzPJG2gXR61jZBuZmemfj-cv1ARcxWbpoD30_1REWrsAJSPiJywipAd8PWfl1k0x10-da8i4MchSDFf8zXSEnSGUur3Oe1MD0nKD-8LGxZCAsRHtp4jO8LqbrJotZn5LiwwegCeZSqHBvdVFTT5Y_0UOitAv4-3YgXjWIzUgUvMGklOn59Gy7CYU4wfOSHtdiYkeut-Yh8B3ouBfU82lZgFDvSFlTbGNdeyODQUpR1mKzj8DKtdAdt95kyKKoACSpxLTYE5LO7OIFdPZJnx1PM9-HN-lknNtCy-2gy1j7Xiwi02LVxukOcVwsuytO1EtL8RtE4Pr-hbasVpNfuBqIm_lxqt3Rr2NJQicofydevB1GXmkwg_cS4KrloiPTlvB7sVfmGcgkuann6exug80Bw3lRMOS8xhEPJurJTKpdBYQcMgYjnbmbFg46EazoIXHZNp987deACqV]--></g></svg>