<svg xmlns="http://www.w3.org/2000/svg" xmlns:xlink="http://www.w3.org/1999/xlink" contentStyleType="text/css" data-diagram-type="CLASS" height="1099px" preserveAspectRatio="none" style="width:1232px;height:1099px;background:#FFFFFF;" version="1.1" viewBox="0 0 1232 1099" width="1232px" zoomAndPan="magnify"><title>Consumption-Thesis - Core Class Diagram</title><defs/><g><g class="title" data-source-line="1"><text fill="#000000" font-family="sans-serif" font-size="14" font-weight="bold" lengthAdjust="spacing" textLength="284.7168" x="466.6416" y="24.5332">Consumption-Thesis - Core Class Diagram</text></g><!--cluster Models--><g class="cluster" data-entity="Models" data-source-line="3" data-uid="ent0002" id="cluster_Models"><path d="M144.5,247.6094 L193.7275,247.6094 A3.75,3.75 0 0 1 196.2275,250.1094 L203.2275,271.2188 L746.5,271.2188 A2.5,2.5 0 0 1 749,273.7188 L749,1090.1094 A2.5,2.5 0 0 1 746.5,1092.6094 L144.5,1092.6094 A2.5,2.5 0 0 1 142,1090.1094 L142,250.1094 A2.5,2.5 0 0 1 144.5,247.6094" fill="none" style="stroke:#000000;stroke-width:1.5;"/><line style="stroke:#000000;stroke-width:1.5;" x1="142" x2="203.2275" y1="271.2188" y2="271.2188"/><text fill="#000000" font-family="sans-serif" font-size="14" font-weight="bold" lengthAdjust="spacing" textLength="48.2275" x="146" y="264.1426">Models</text></g><!--cluster Helpers--><g class="cluster" data-entity="Helpers" data-source-line="60" data-uid="ent0008" id="cluster_Helpers"><path d="M419.5,44.6094 L471.8584,44.6094 A3.75,3.75 0 0 1 474.3584,47.1094 L481.3584,68.2188 L1222.5,68.2188 A2.5,2.5 0 0 1 1225,70.7188 L1225,212.1094 A2.5,2.5 0 0 1 1222.5,214.6094 L419.5,214.6094 A2.5,2.5 0 0 1 417,212.1094 L417,47.1094 A2.5,2.5 0 0 1 419.5,44.6094" fill="none" style="stroke:#000000;stroke-width:1.5;"/><line style="stroke:#000000;stroke-width:1.5;" x1="417" x2="481.3584" y1="68.2188" y2="68.2188"/><text fill="#000000" font-family="sans-serif" font-size="14" font-weight="bold" lengthAdjust="spacing" textLength="51.3584" x="421" y="61.1426">Helpers</text></g><!--class CarEntry--><g class="entity" data-entity="CarEntry" data-source-line="4" data-uid="ent0003" id="entity_CarEntry"><rect fill="#F1F1F1" height="276.9219" rx="2.5" ry="2.5" style="stroke:#181818;stroke-width:0.5;" width="169.1719" x="448.5" y="283.6094"/><ellipse cx="501.2188" cy="299.6094" fill="#ADD1B2" rx="11" ry="11" style="stroke:#181818;stroke-width:1;"/><path d="M503.9844,295.4844 Q504.1406,295.2656 504.3281,295.1563 Q504.5156,295.0469 504.7344,295.0469 Q505.1094,295.0469 505.3438,295.3047 Q505.5781,295.5625 505.5781,296.1719 L505.5781,297.625 Q505.5781,298.2344 505.3438,298.5 Q505.1094,298.7656 504.7344,298.7656 Q504.3906,298.7656 504.1875,298.5625 Q503.9844,298.375 503.875,297.8594 Q503.8281,297.5 503.6406,297.3125 Q503.3125,296.9375 502.7031,296.7188 Q502.0938,296.5 501.4688,296.5 Q500.7031,296.5 500.0703,296.8281 Q499.4375,297.1563 498.9453,297.9063 Q498.4531,298.6563 498.4531,299.6875 L498.4531,300.7813 Q498.4531,302.0156 499.3438,302.8359 Q500.2344,303.6563 501.8281,303.6563 Q502.7656,303.6563 503.4219,303.4063 Q503.8125,303.25 504.2344,302.8125 Q504.5,302.5469 504.6484,302.4688 Q504.7969,302.3906 505,302.3906 Q505.3281,302.3906 505.5859,302.6484 Q505.8438,302.9063 505.8438,303.25 Q505.8438,303.5938 505.5,304 Q505,304.5781 504.2031,304.9063 Q503.125,305.3594 501.8281,305.3594 Q500.3125,305.3594 499.1094,304.7344 Q498.125,304.2344 497.4375,303.1641 Q496.75,302.0938 496.75,300.8125 L496.75,299.6563 Q496.75,298.3281 497.3672,297.1797 Q497.9844,296.0313 499.0781,295.4141 Q500.1719,294.7969 501.4063,294.7969 Q502.1406,294.7969 502.7891,294.9609 Q503.4375,295.125 503.9844,295.4844 Z " fill="#000000"/><text fill="#000000" font-family="sans-serif" font-size="14" lengthAdjust="spacing" textLength="55.2344" x="521.7188" y="305.3379">CarEntry</text><line style="stroke:#181818;stroke-width:0.5;" x1="449.5" x2="616.6719" y1="315.6094" y2="315.6094"/><ellipse cx="459.5" cy="329.9141" fill="none" rx="3" ry="3" style="stroke:#038048;stroke-width:1;"/><text fill="#000000" font-family="sans-serif" font-size="14" lengthAdjust="spacing" textLength="51.3584" x="468.5" y="334.1426">String id</text><ellipse cx="459.5" cy="347.5234" fill="none" rx="3" ry="3" style="stroke:#038048;stroke-width:1;"/><text fill="#000000" font-family="sans-serif" font-size="14" lengthAdjust="spacing" textLength="74.6963" x="468.5" y="351.752">String make</text><ellipse cx="459.5" cy="365.1328" fill="none" rx="3" ry="3" style="stroke:#038048;stroke-width:1;"/><text fill="#000000" font-family="sans-serif" font-size="14" lengthAdjust="spacing" textLength="78.5928" x="468.5" y="369.3613">String model</text><ellipse cx="459.5" cy="382.7422" fill="none" rx="3" ry="3" style="stroke:#038048;stroke-width:1;"/><text fill="#000000" font-family="sans-serif" font-size="14" lengthAdjust="spacing" textLength="45.9102" x="468.5" y="386.9707">int year</text><ellipse cx="459.5" cy="400.3516" fill="none" rx="3" ry="3" style="stroke:#038048;stroke-width:1;"/><text fill="#000000" font-family="sans-serif" font-size="14" lengthAdjust="spacing" textLength="70.8066" x="468.5" y="404.5801">String color</text><ellipse cx="459.5" cy="417.9609" fill="none" rx="3" ry="3" style="stroke:#038048;stroke-width:1;"/><text fill="#000000" font-family="sans-serif" font-size="14" lengthAdjust="spacing" textLength="143.1719" x="468.5" y="422.1895">String ownerUsername</text><ellipse cx="459.5" cy="435.5703" fill="none" rx="3" ry="3" style="stroke:#038048;stroke-width:1;"/><text fill="#000000" font-family="sans-serif" font-size="14" lengthAdjust="spacing" textLength="105.0615" x="468.5" y="439.7988">double drivenKm</text><ellipse cx="459.5" cy="453.1797" fill="none" rx="3" ry="3" style="stroke:#038048;stroke-width:1;"/><text fill="#000000" font-family="sans-serif" font-size="14" lengthAdjust="spacing" textLength="66.9307" x="468.5" y="457.4082">bool active</text><ellipse cx="459.5" cy="470.7891" fill="none" rx="3" ry="3" style="stroke:#038048;stroke-width:1;"/><text fill="#000000" font-family="sans-serif" font-size="14" lengthAdjust="spacing" textLength="99.627" x="468.5" y="475.0176">double tankSize</text><ellipse cx="459.5" cy="488.3984" fill="none" rx="3" ry="3" style="stroke:#038048;stroke-width:1;"/><text fill="#000000" font-family="sans-serif" font-size="14" lengthAdjust="spacing" textLength="97.2891" x="468.5" y="492.627">double fuelSum</text><ellipse cx="459.5" cy="506.0078" fill="none" rx="3" ry="3" style="stroke:#038048;stroke-width:1;"/><text fill="#000000" font-family="sans-serif" font-size="14" lengthAdjust="spacing" textLength="96.4756" x="468.5" y="510.2363">String imageUrl</text><ellipse cx="459.5" cy="523.6172" fill="none" rx="3" ry="3" style="stroke:#038048;stroke-width:1;"/><text fill="#000000" font-family="sans-serif" font-size="14" lengthAdjust="spacing" textLength="108.165" x="468.5" y="527.8457">String description</text><line style="stroke:#181818;stroke-width:0.5;" x1="449.5" x2="616.6719" y1="534.9219" y2="534.9219"/><ellipse cx="459.5" cy="549.2266" fill="#84BE84" rx="3" ry="3" style="stroke:#038048;stroke-width:1;"/><text fill="#000000" font-family="sans-serif" font-size="14" lengthAdjust="spacing" textLength="134.6338" x="468.5" y="553.4551">updateConsumption()</text></g><!--class FuelEntry--><g class="entity" data-entity="FuelEntry" data-source-line="20" data-uid="ent0004" id="entity_FuelEntry"><rect fill="#F1F1F1" height="153.6563" rx="2.5" ry="2.5" style="stroke:#181818;stroke-width:0.5;" width="103.8203" x="629" y="647.1094"/><ellipse cx="649.3596" cy="663.1094" fill="#ADD1B2" rx="11" ry="11" style="stroke:#181818;stroke-width:1;"/><path d="M652.1252,658.9844 Q652.2814,658.7656 652.4689,658.6563 Q652.6564,658.5469 652.8752,658.5469 Q653.2502,658.5469 653.4846,658.8047 Q653.7189,659.0625 653.7189,659.6719 L653.7189,661.125 Q653.7189,661.7344 653.4846,662 Q653.2502,662.2656 652.8752,662.2656 Q652.5314,662.2656 652.3283,662.0625 Q652.1252,661.875 652.0158,661.3594 Q651.9689,661 651.7814,660.8125 Q651.4533,660.4375 650.8439,660.2188 Q650.2346,660 649.6096,660 Q648.8439,660 648.2111,660.3281 Q647.5783,660.6563 647.0861,661.4063 Q646.5939,662.1563 646.5939,663.1875 L646.5939,664.2813 Q646.5939,665.5156 647.4846,666.3359 Q648.3752,667.1563 649.9689,667.1563 Q650.9064,667.1563 651.5627,666.9063 Q651.9533,666.75 652.3752,666.3125 Q652.6408,666.0469 652.7893,665.9688 Q652.9377,665.8906 653.1408,665.8906 Q653.4689,665.8906 653.7268,666.1484 Q653.9846,666.4063 653.9846,666.75 Q653.9846,667.0938 653.6408,667.5 Q653.1408,668.0781 652.3439,668.4063 Q651.2658,668.8594 649.9689,668.8594 Q648.4533,668.8594 647.2502,668.2344 Q646.2658,667.7344 645.5783,666.6641 Q644.8908,665.5938 644.8908,664.3125 L644.8908,663.1563 Q644.8908,661.8281 645.508,660.6797 Q646.1252,659.5313 647.2189,658.9141 Q648.3127,658.2969 649.5471,658.2969 Q650.2814,658.2969 650.9299,658.4609 Q651.5783,658.625 652.1252,658.9844 Z " fill="#000000"/><text fill="#000000" font-family="sans-serif" font-size="14" lengthAdjust="spacing" textLength="59.9102" x="664.5506" y="668.8379">FuelEntry</text><line style="stroke:#181818;stroke-width:0.5;" x1="630" x2="731.8203" y1="679.1094" y2="679.1094"/><ellipse cx="640" cy="693.4141" fill="none" rx="3" ry="3" style="stroke:#038048;stroke-width:1;"/><text fill="#000000" font-family="sans-serif" font-size="14" lengthAdjust="spacing" textLength="51.3584" x="649" y="697.6426">String id</text><ellipse cx="640" cy="711.0234" fill="none" rx="3" ry="3" style="stroke:#038048;stroke-width:1;"/><text fill="#000000" font-family="sans-serif" font-size="14" lengthAdjust="spacing" textLength="71.5859" x="649" y="715.252">String carId</text><ellipse cx="640" cy="728.6328" fill="none" rx="3" ry="3" style="stroke:#038048;stroke-width:1;"/><text fill="#000000" font-family="sans-serif" font-size="14" lengthAdjust="spacing" textLength="60.71" x="649" y="732.8613">Date date</text><ellipse cx="640" cy="746.2422" fill="none" rx="3" ry="3" style="stroke:#038048;stroke-width:1;"/><text fill="#000000" font-family="sans-serif" font-size="14" lengthAdjust="spacing" textLength="75.4893" x="649" y="750.4707">double liters</text><ellipse cx="640" cy="763.8516" fill="none" rx="3" ry="3" style="stroke:#038048;stroke-width:1;"/><text fill="#000000" font-family="sans-serif" font-size="14" lengthAdjust="spacing" textLength="77.8203" x="649" y="768.0801">int odometer</text><ellipse cx="640" cy="781.4609" fill="none" rx="3" ry="3" style="stroke:#038048;stroke-width:1;"/><text fill="#000000" font-family="sans-serif" font-size="14" lengthAdjust="spacing" textLength="71.6064" x="649" y="785.6895">double cost</text><line style="stroke:#181818;stroke-width:0.5;" x1="630" x2="731.8203" y1="792.7656" y2="792.7656"/></g><!--class ServiceItem--><g class="entity" data-entity="ServiceItem" data-source-line="29" data-uid="ent0005" id="entity_ServiceItem"><rect fill="#F1F1F1" height="171.2656" rx="2.5" ry="2.5" style="stroke:#181818;stroke-width:0.5;" width="135.7168" x="327" y="638.6094"/><ellipse cx="355.413" cy="654.6094" fill="#ADD1B2" rx="11" ry="11" style="stroke:#181818;stroke-width:1;"/><path d="M358.1786,650.4844 Q358.3349,650.2656 358.5224,650.1563 Q358.7099,650.0469 358.9286,650.0469 Q359.3036,650.0469 359.538,650.3047 Q359.7724,650.5625 359.7724,651.1719 L359.7724,652.625 Q359.7724,653.2344 359.538,653.5 Q359.3036,653.7656 358.9286,653.7656 Q358.5849,653.7656 358.3817,653.5625 Q358.1786,653.375 358.0692,652.8594 Q358.0224,652.5 357.8349,652.3125 Q357.5067,651.9375 356.8974,651.7188 Q356.288,651.5 355.663,651.5 Q354.8974,651.5 354.2646,651.8281 Q353.6317,652.1563 353.1396,652.9063 Q352.6474,653.6563 352.6474,654.6875 L352.6474,655.7813 Q352.6474,657.0156 353.538,657.8359 Q354.4286,658.6563 356.0224,658.6563 Q356.9599,658.6563 357.6161,658.4063 Q358.0067,658.25 358.4286,657.8125 Q358.6942,657.5469 358.8427,657.4688 Q358.9911,657.3906 359.1942,657.3906 Q359.5224,657.3906 359.7802,657.6484 Q360.038,657.9063 360.038,658.25 Q360.038,658.5938 359.6942,659 Q359.1942,659.5781 358.3974,659.9063 Q357.3192,660.3594 356.0224,660.3594 Q354.5067,660.3594 353.3036,659.7344 Q352.3192,659.2344 351.6317,658.1641 Q350.9442,657.0938 350.9442,655.8125 L350.9442,654.6563 Q350.9442,653.3281 351.5614,652.1797 Q352.1786,651.0313 353.2724,650.4141 Q354.3661,649.7969 355.6005,649.7969 Q356.3349,649.7969 356.9833,649.9609 Q357.6317,650.125 358.1786,650.4844 Z " fill="#000000"/><text fill="#000000" font-family="sans-serif" font-size="14" lengthAdjust="spacing" textLength="73.9102" x="372.3937" y="660.3379">ServiceItem</text><line style="stroke:#181818;stroke-width:0.5;" x1="328" x2="461.7168" y1="670.6094" y2="670.6094"/><ellipse cx="338" cy="684.9141" fill="none" rx="3" ry="3" style="stroke:#038048;stroke-width:1;"/><text fill="#000000" font-family="sans-serif" font-size="14" lengthAdjust="spacing" textLength="51.3584" x="347" y="689.1426">String id</text><ellipse cx="338" cy="702.5234" fill="none" rx="3" ry="3" style="stroke:#038048;stroke-width:1;"/><text fill="#000000" font-family="sans-serif" font-size="14" lengthAdjust="spacing" textLength="71.5859" x="347" y="706.752">String carId</text><ellipse cx="338" cy="720.1328" fill="none" rx="3" ry="3" style="stroke:#038048;stroke-width:1;"/><text fill="#000000" font-family="sans-serif" font-size="14" lengthAdjust="spacing" textLength="75.4824" x="347" y="724.3613">String name</text><ellipse cx="338" cy="737.7422" fill="none" rx="3" ry="3" style="stroke:#038048;stroke-width:1;"/><text fill="#000000" font-family="sans-serif" font-size="14" lengthAdjust="spacing" textLength="61.4619" x="347" y="741.9707">int lastKm</text><ellipse cx="338" cy="755.3516" fill="none" rx="3" ry="3" style="stroke:#038048;stroke-width:1;"/><text fill="#000000" font-family="sans-serif" font-size="14" lengthAdjust="spacing" textLength="84.8203" x="347" y="759.5801">Date lastDate</text><ellipse cx="338" cy="772.9609" fill="none" rx="3" ry="3" style="stroke:#038048;stroke-width:1;"/><text fill="#000000" font-family="sans-serif" font-size="14" lengthAdjust="spacing" textLength="84.8066" x="347" y="777.1895">int intervalKm</text><ellipse cx="338" cy="790.5703" fill="none" rx="3" ry="3" style="stroke:#038048;stroke-width:1;"/><text fill="#000000" font-family="sans-serif" font-size="14" lengthAdjust="spacing" textLength="109.7168" x="347" y="794.7988">int intervalMonths</text><line style="stroke:#181818;stroke-width:0.5;" x1="328" x2="461.7168" y1="801.875" y2="801.875"/></g><!--class Reminder--><g class="entity" data-entity="Reminder" data-source-line="39" data-uid="ent0006" id="entity_Reminder"><rect fill="#F1F1F1" height="188.875" rx="2.5" ry="2.5" style="stroke:#181818;stroke-width:0.5;" width="169.1719" x="563.5" y="887.6094"/><ellipse cx="613.4912" cy="903.6094" fill="#ADD1B2" rx="11" ry="11" style="stroke:#181818;stroke-width:1;"/><path d="M616.2568,899.4844 Q616.4131,899.2656 616.6006,899.1563 Q616.7881,899.0469 617.0068,899.0469 Q617.3818,899.0469 617.6162,899.3047 Q617.8506,899.5625 617.8506,900.1719 L617.8506,901.625 Q617.8506,902.2344 617.6162,902.5 Q617.3818,902.7656 617.0068,902.7656 Q616.6631,902.7656 616.46,902.5625 Q616.2568,902.375 616.1475,901.8594 Q616.1006,901.5 615.9131,901.3125 Q615.585,900.9375 614.9756,900.7188 Q614.3662,900.5 613.7412,900.5 Q612.9756,900.5 612.3428,900.8281 Q611.71,901.1563 611.2178,901.9063 Q610.7256,902.6563 610.7256,903.6875 L610.7256,904.7813 Q610.7256,906.0156 611.6162,906.8359 Q612.5068,907.6563 614.1006,907.6563 Q615.0381,907.6563 615.6943,907.4063 Q616.085,907.25 616.5068,906.8125 Q616.7725,906.5469 616.9209,906.4688 Q617.0693,906.3906 617.2725,906.3906 Q617.6006,906.3906 617.8584,906.6484 Q618.1162,906.9063 618.1162,907.25 Q618.1162,907.5938 617.7725,908 Q617.2725,908.5781 616.4756,908.9063 Q615.3975,909.3594 614.1006,909.3594 Q612.585,909.3594 611.3818,908.7344 Q610.3975,908.2344 609.71,907.1641 Q609.0225,906.0938 609.0225,904.8125 L609.0225,903.6563 Q609.0225,902.3281 609.6396,901.1797 Q610.2568,900.0313 611.3506,899.4141 Q612.4443,898.7969 613.6787,898.7969 Q614.4131,898.7969 615.0615,898.9609 Q615.71,899.125 616.2568,899.4844 Z " fill="#000000"/><text fill="#000000" font-family="sans-serif" font-size="14" lengthAdjust="spacing" textLength="60.6895" x="633.9912" y="909.3379">Reminder</text><line style="stroke:#181818;stroke-width:0.5;" x1="564.5" x2="731.6719" y1="919.6094" y2="919.6094"/><ellipse cx="574.5" cy="933.9141" fill="none" rx="3" ry="3" style="stroke:#038048;stroke-width:1;"/><text fill="#000000" font-family="sans-serif" font-size="14" lengthAdjust="spacing" textLength="51.3584" x="583.5" y="938.1426">String id</text><ellipse cx="574.5" cy="951.5234" fill="none" rx="3" ry="3" style="stroke:#038048;stroke-width:1;"/><text fill="#000000" font-family="sans-serif" font-size="14" lengthAdjust="spacing" textLength="79.3721" x="583.5" y="955.752">String? carId</text><ellipse cx="574.5" cy="969.1328" fill="none" rx="3" ry="3" style="stroke:#038048;stroke-width:1;"/><text fill="#000000" font-family="sans-serif" font-size="14" lengthAdjust="spacing" textLength="62.248" x="583.5" y="973.3613">String title</text><ellipse cx="574.5" cy="986.7422" fill="none" rx="3" ry="3" style="stroke:#038048;stroke-width:1;"/><text fill="#000000" font-family="sans-serif" font-size="14" lengthAdjust="spacing" textLength="108.165" x="583.5" y="990.9707">String description</text><ellipse cx="574.5" cy="1004.3516" fill="none" rx="3" ry="3" style="stroke:#038048;stroke-width:1;"/><text fill="#000000" font-family="sans-serif" font-size="14" lengthAdjust="spacing" textLength="60.71" x="583.5" y="1008.5801">Date date</text><ellipse cx="574.5" cy="1021.9609" fill="none" rx="3" ry="3" style="stroke:#038048;stroke-width:1;"/><text fill="#000000" font-family="sans-serif" font-size="14" lengthAdjust="spacing" textLength="122.1855" x="583.5" y="1026.1895">Date? snoozedUntil</text><ellipse cx="574.5" cy="1039.5703" fill="none" rx="3" ry="3" style="stroke:#038048;stroke-width:1;"/><text fill="#000000" font-family="sans-serif" font-size="14" lengthAdjust="spacing" textLength="123.7373" x="583.5" y="1043.7988">Date? previousDate</text><ellipse cx="574.5" cy="1057.1797" fill="none" rx="3" ry="3" style="stroke:#038048;stroke-width:1;"/><text fill="#000000" font-family="sans-serif" font-size="14" lengthAdjust="spacing" textLength="143.1719" x="583.5" y="1061.4082">String ownerUsername</text><line style="stroke:#181818;stroke-width:0.5;" x1="564.5" x2="731.6719" y1="1068.4844" y2="1068.4844"/></g><!--class ExtraCost--><g class="entity" data-entity="ExtraCost" data-source-line="50" data-uid="ent0007" id="entity_ExtraCost"><rect fill="#F1F1F1" height="153.6563" rx="2.5" ry="2.5" style="stroke:#181818;stroke-width:0.5;" width="134.165" x="158" y="647.1094"/><ellipse cx="191.3164" cy="663.1094" fill="#ADD1B2" rx="11" ry="11" style="stroke:#181818;stroke-width:1;"/><path d="M194.082,658.9844 Q194.2383,658.7656 194.4258,658.6563 Q194.6133,658.5469 194.832,658.5469 Q195.207,658.5469 195.4414,658.8047 Q195.6758,659.0625 195.6758,659.6719 L195.6758,661.125 Q195.6758,661.7344 195.4414,662 Q195.207,662.2656 194.832,662.2656 Q194.4883,662.2656 194.2852,662.0625 Q194.082,661.875 193.9727,661.3594 Q193.9258,661 193.7383,660.8125 Q193.4102,660.4375 192.8008,660.2188 Q192.1914,660 191.5664,660 Q190.8008,660 190.168,660.3281 Q189.5352,660.6563 189.043,661.4063 Q188.5508,662.1563 188.5508,663.1875 L188.5508,664.2813 Q188.5508,665.5156 189.4414,666.3359 Q190.332,667.1563 191.9258,667.1563 Q192.8633,667.1563 193.5195,666.9063 Q193.9102,666.75 194.332,666.3125 Q194.5977,666.0469 194.7461,665.9688 Q194.8945,665.8906 195.0977,665.8906 Q195.4258,665.8906 195.6836,666.1484 Q195.9414,666.4063 195.9414,666.75 Q195.9414,667.0938 195.5977,667.5 Q195.0977,668.0781 194.3008,668.4063 Q193.2227,668.8594 191.9258,668.8594 Q190.4102,668.8594 189.207,668.2344 Q188.2227,667.7344 187.5352,666.6641 Q186.8477,665.5938 186.8477,664.3125 L186.8477,663.1563 Q186.8477,661.8281 187.4648,660.6797 Q188.082,659.5313 189.1758,658.9141 Q190.2695,658.2969 191.5039,658.2969 Q192.2383,658.2969 192.8867,658.4609 Q193.5352,658.625 194.082,658.9844 Z " fill="#000000"/><text fill="#000000" font-family="sans-serif" font-size="14" lengthAdjust="spacing" textLength="61.4619" x="209.3867" y="668.8379">ExtraCost</text><line style="stroke:#181818;stroke-width:0.5;" x1="159" x2="291.165" y1="679.1094" y2="679.1094"/><ellipse cx="169" cy="693.4141" fill="none" rx="3" ry="3" style="stroke:#038048;stroke-width:1;"/><text fill="#000000" font-family="sans-serif" font-size="14" lengthAdjust="spacing" textLength="51.3584" x="178" y="697.6426">String id</text><ellipse cx="169" cy="711.0234" fill="none" rx="3" ry="3" style="stroke:#038048;stroke-width:1;"/><text fill="#000000" font-family="sans-serif" font-size="14" lengthAdjust="spacing" textLength="71.5859" x="178" y="715.252">String carId</text><ellipse cx="169" cy="728.6328" fill="none" rx="3" ry="3" style="stroke:#038048;stroke-width:1;"/><text fill="#000000" font-family="sans-serif" font-size="14" lengthAdjust="spacing" textLength="60.71" x="178" y="732.8613">Date date</text><ellipse cx="169" cy="746.2422" fill="none" rx="3" ry="3" style="stroke:#038048;stroke-width:1;"/><text fill="#000000" font-family="sans-serif" font-size="14" lengthAdjust="spacing" textLength="92.627" x="178" y="750.4707">double amount</text><ellipse cx="169" cy="763.8516" fill="none" rx="3" ry="3" style="stroke:#038048;stroke-width:1;"/><text fill="#000000" font-family="sans-serif" font-size="14" lengthAdjust="spacing" textLength="94.1582" x="178" y="768.0801">String category</text><ellipse cx="169" cy="781.4609" fill="none" rx="3" ry="3" style="stroke:#038048;stroke-width:1;"/><text fill="#000000" font-family="sans-serif" font-size="14" lengthAdjust="spacing" textLength="108.165" x="178" y="785.6895">String description</text><line style="stroke:#181818;stroke-width:0.5;" x1="159" x2="291.165" y1="792.7656" y2="792.7656"/></g><!--class FirebaseHelper--><g class="entity" data-entity="FirebaseHelper" data-source-line="61" data-uid="ent0009" id="entity_FirebaseHelper"><rect fill="#F1F1F1" height="118.4375" rx="2.5" ry="2.5" style="stroke:#181818;stroke-width:0.5;" width="223.6475" x="433" y="80.6094"/><ellipse cx="492.7188" cy="96.6094" fill="#ADD1B2" rx="11" ry="11" style="stroke:#181818;stroke-width:1;"/><path d="M495.4844,92.4844 Q495.6406,92.2656 495.8281,92.1563 Q496.0156,92.0469 496.2344,92.0469 Q496.6094,92.0469 496.8438,92.3047 Q497.0781,92.5625 497.0781,93.1719 L497.0781,94.625 Q497.0781,95.2344 496.8438,95.5 Q496.6094,95.7656 496.2344,95.7656 Q495.8906,95.7656 495.6875,95.5625 Q495.4844,95.375 495.375,94.8594 Q495.3281,94.5 495.1406,94.3125 Q494.8125,93.9375 494.2031,93.7188 Q493.5938,93.5 492.9688,93.5 Q492.2031,93.5 491.5703,93.8281 Q490.9375,94.1563 490.4453,94.9063 Q489.9531,95.6563 489.9531,96.6875 L489.9531,97.7813 Q489.9531,99.0156 490.8438,99.8359 Q491.7344,100.6563 493.3281,100.6563 Q494.2656,100.6563 494.9219,100.4063 Q495.3125,100.25 495.7344,99.8125 Q496,99.5469 496.1484,99.4688 Q496.2969,99.3906 496.5,99.3906 Q496.8281,99.3906 497.0859,99.6484 Q497.3438,99.9063 497.3438,100.25 Q497.3438,100.5938 497,101 Q496.5,101.5781 495.7031,101.9063 Q494.625,102.3594 493.3281,102.3594 Q491.8125,102.3594 490.6094,101.7344 Q489.625,101.2344 488.9375,100.1641 Q488.25,99.0938 488.25,97.8125 L488.25,96.6563 Q488.25,95.3281 488.8672,94.1797 Q489.4844,93.0313 490.5781,92.4141 Q491.6719,91.7969 492.9063,91.7969 Q493.6406,91.7969 494.2891,91.9609 Q494.9375,92.125 495.4844,92.4844 Z " fill="#000000"/><text fill="#000000" font-family="sans-serif" font-size="14" lengthAdjust="spacing" textLength="95.71" x="513.2188" y="102.3379">FirebaseHelper</text><line style="stroke:#181818;stroke-width:0.5;" x1="434" x2="655.6475" y1="112.6094" y2="112.6094"/><line style="stroke:#181818;stroke-width:0.5;" x1="434" x2="655.6475" y1="120.6094" y2="120.6094"/><ellipse cx="444" cy="134.9141" fill="#84BE84" rx="3" ry="3" style="stroke:#038048;stroke-width:1;"/><text fill="#000000" font-family="sans-serif" font-size="14" lengthAdjust="spacing" textLength="174.2754" x="453" y="139.1426">addCarEntryToDb(carEntry)</text><ellipse cx="444" cy="152.5234" fill="#84BE84" rx="3" ry="3" style="stroke:#038048;stroke-width:1;"/><text fill="#000000" font-family="sans-serif" font-size="14" lengthAdjust="spacing" textLength="185.9238" x="453" y="156.752">loadCarEntrysFromFirestore()</text><ellipse cx="444" cy="170.1328" fill="#84BE84" rx="3" ry="3" style="stroke:#038048;stroke-width:1;"/><text fill="#000000" font-family="sans-serif" font-size="14" lengthAdjust="spacing" textLength="182.8477" x="453" y="174.3613">addReminderToDb(reminder)</text><ellipse cx="444" cy="187.7422" fill="#84BE84" rx="3" ry="3" style="stroke:#038048;stroke-width:1;"/><text fill="#000000" font-family="sans-serif" font-size="14" lengthAdjust="spacing" textLength="197.6475" x="453" y="191.9707">updateReminderInDb(reminder)</text></g><!--class DateUtils--><g class="entity" data-entity="DateUtils" data-source-line="68" data-uid="ent0010" id="entity_DateUtils"><rect fill="#F1F1F1" height="65.6094" rx="2.5" ry="2.5" style="stroke:#181818;stroke-width:0.5;" width="307.6953" x="692" y="106.6094"/><ellipse cx="813.2012" cy="122.6094" fill="#ADD1B2" rx="11" ry="11" style="stroke:#181818;stroke-width:1;"/><path d="M815.9668,118.4844 Q816.123,118.2656 816.3105,118.1563 Q816.498,118.0469 816.7168,118.0469 Q817.0918,118.0469 817.3262,118.3047 Q817.5605,118.5625 817.5605,119.1719 L817.5605,120.625 Q817.5605,121.2344 817.3262,121.5 Q817.0918,121.7656 816.7168,121.7656 Q816.373,121.7656 816.1699,121.5625 Q815.9668,121.375 815.8574,120.8594 Q815.8105,120.5 815.623,120.3125 Q815.2949,119.9375 814.6855,119.7188 Q814.0762,119.5 813.4512,119.5 Q812.6855,119.5 812.0527,119.8281 Q811.4199,120.1563 810.9277,120.9063 Q810.4355,121.6563 810.4355,122.6875 L810.4355,123.7813 Q810.4355,125.0156 811.3262,125.8359 Q812.2168,126.6563 813.8105,126.6563 Q814.748,126.6563 815.4043,126.4063 Q815.7949,126.25 816.2168,125.8125 Q816.4824,125.5469 816.6309,125.4688 Q816.7793,125.3906 816.9824,125.3906 Q817.3105,125.3906 817.5684,125.6484 Q817.8262,125.9063 817.8262,126.25 Q817.8262,126.5938 817.4824,127 Q816.9824,127.5781 816.1855,127.9063 Q815.1074,128.3594 813.8105,128.3594 Q812.2949,128.3594 811.0918,127.7344 Q810.1074,127.2344 809.4199,126.1641 Q808.7324,125.0938 808.7324,123.8125 L808.7324,122.6563 Q808.7324,121.3281 809.3496,120.1797 Q809.9668,119.0313 811.0605,118.4141 Q812.1543,117.7969 813.3887,117.7969 Q814.123,117.7969 814.7715,117.9609 Q815.4199,118.125 815.9668,118.4844 Z " fill="#000000"/><text fill="#000000" font-family="sans-serif" font-size="14" lengthAdjust="spacing" textLength="56.793" x="833.7012" y="128.3379">DateUtils</text><line style="stroke:#181818;stroke-width:0.5;" x1="693" x2="998.6953" y1="138.6094" y2="138.6094"/><line style="stroke:#181818;stroke-width:0.5;" x1="693" x2="998.6953" y1="146.6094" y2="146.6094"/><ellipse cx="703" cy="160.9141" fill="#84BE84" rx="3" ry="3" style="stroke:#038048;stroke-width:1;"/><text fill="#000000" font-family="sans-serif" font-size="14" lengthAdjust="spacing" textLength="281.6953" x="712" y="165.1426">static Date addMonths(Date date, int months)</text></g><!--class CalendarWidget--><g class="entity" data-entity="CalendarWidget" data-source-line="72" data-uid="ent0011" id="entity_CalendarWidget"><rect fill="#F1F1F1" height="83.2188" rx="2.5" ry="2.5" style="stroke:#181818;stroke-width:0.5;" width="173.8545" x="1035" y="98.1094"/><ellipse cx="1068.6609" cy="114.1094" fill="#ADD1B2" rx="11" ry="11" style="stroke:#181818;stroke-width:1;"/><path d="M1071.4266,109.9844 Q1071.5828,109.7656 1071.7703,109.6563 Q1071.9578,109.5469 1072.1766,109.5469 Q1072.5516,109.5469 1072.7859,109.8047 Q1073.0203,110.0625 1073.0203,110.6719 L1073.0203,112.125 Q1073.0203,112.7344 1072.7859,113 Q1072.5516,113.2656 1072.1766,113.2656 Q1071.8328,113.2656 1071.6297,113.0625 Q1071.4266,112.875 1071.3172,112.3594 Q1071.2703,112 1071.0828,111.8125 Q1070.7547,111.4375 1070.1453,111.2188 Q1069.5359,111 1068.9109,111 Q1068.1453,111 1067.5125,111.3281 Q1066.8797,111.6563 1066.3875,112.4063 Q1065.8953,113.1563 1065.8953,114.1875 L1065.8953,115.2813 Q1065.8953,116.5156 1066.7859,117.3359 Q1067.6766,118.1563 1069.2703,118.1563 Q1070.2078,118.1563 1070.8641,117.9063 Q1071.2547,117.75 1071.6766,117.3125 Q1071.9422,117.0469 1072.0906,116.9688 Q1072.2391,116.8906 1072.4422,116.8906 Q1072.7703,116.8906 1073.0281,117.1484 Q1073.2859,117.4063 1073.2859,117.75 Q1073.2859,118.0938 1072.9422,118.5 Q1072.4422,119.0781 1071.6453,119.4063 Q1070.5672,119.8594 1069.2703,119.8594 Q1067.7547,119.8594 1066.5516,119.2344 Q1065.5672,118.7344 1064.8797,117.6641 Q1064.1922,116.5938 1064.1922,115.3125 L1064.1922,114.1563 Q1064.1922,112.8281 1064.8094,111.6797 Q1065.4266,110.5313 1066.5203,109.9141 Q1067.6141,109.2969 1068.8484,109.2969 Q1069.5828,109.2969 1070.2313,109.4609 Q1070.8797,109.625 1071.4266,109.9844 Z " fill="#000000"/><text fill="#000000" font-family="sans-serif" font-size="14" lengthAdjust="spacing" textLength="100.3857" x="1086.8078" y="119.8379">CalendarWidget</text><line style="stroke:#181818;stroke-width:0.5;" x1="1036" x2="1207.8545" y1="130.1094" y2="130.1094"/><ellipse cx="1046" cy="144.4141" fill="none" rx="3" ry="3" style="stroke:#038048;stroke-width:1;"/><text fill="#000000" font-family="sans-serif" font-size="14" lengthAdjust="spacing" textLength="74.7168" x="1055" y="148.6426">eventCache</text><line style="stroke:#181818;stroke-width:0.5;" x1="1036" x2="1207.8545" y1="155.7188" y2="155.7188"/><ellipse cx="1046" cy="170.0234" fill="#84BE84" rx="3" ry="3" style="stroke:#038048;stroke-width:1;"/><text fill="#000000" font-family="sans-serif" font-size="14" lengthAdjust="spacing" textLength="147.8545" x="1055" y="174.252">renderCalendar(events)</text></g><g class="entity" data-entity="N1" data-source-line="93" data-uid="ent0024" id="entity_N1"><path d="M6,118.1094 L6,160.8125 L397.6714,160.8125 L397.6714,128.1094 L387.6714,118.1094 L6,118.1094" fill="#FEFFDD" style="stroke:#181818;stroke-width:0.5;"/><path d="M387.6714,118.1094 L387.6714,128.1094 L397.6714,128.1094 L387.6714,118.1094" fill="#FEFFDD" style="stroke:#181818;stroke-width:1;"/><text fill="#000000" font-family="sans-serif" font-size="13" lengthAdjust="spacing" textLength="346.0869" x="12" y="136.6045">This diagram summarizes core domain classes and helpers.</text><text fill="#000000" font-family="sans-serif" font-size="13" lengthAdjust="spacing" textLength="370.6714" x="12" y="152.9561">`Reminder.previousDate` is used to implement Undo for snooze.</text></g><!--link CarEntry to FuelEntry--><g class="link" data-entity-1="CarEntry" data-entity-2="FuelEntry" data-source-line="78" data-uid="lnk12" id="link_CarEntry_FuelEntry"><path codeLine="78" d="M600.94,560.8194 C615.53,590.3894 630.43,620.6094 643.37,646.8294" fill="none" id="CarEntry-FuelEntry" style="stroke:#181818;stroke-width:1;"/><text fill="#000000" font-family="sans-serif" font-size="13" lengthAdjust="spacing" textLength="20.96" x="621" y="605.1045">has</text><text fill="#000000" font-family="sans-serif" font-size="13" lengthAdjust="spacing" textLength="7.23" x="597.2642" y="581.8903">1</text><text fill="#000000" font-family="sans-serif" font-size="13" lengthAdjust="spacing" textLength="5.0591" x="634.5565" y="636.2294">*</text></g><!--link CarEntry to ServiceItem--><g class="link" data-entity-1="CarEntry" data-entity-2="ServiceItem" data-source-line="79" data-uid="lnk13" id="link_CarEntry_ServiceItem"><path codeLine="79" d="M486.96,560.7094 C480.42,577.0594 473.39,593.3494 466,608.6094 C461.21,618.4994 455.79,628.6294 450.12,638.5594" fill="none" id="CarEntry-ServiceItem" style="stroke:#181818;stroke-width:1;"/><text fill="#000000" font-family="sans-serif" font-size="13" lengthAdjust="spacing" textLength="20.96" x="473" y="605.1045">has</text><text fill="#000000" font-family="sans-serif" font-size="13" lengthAdjust="spacing" textLength="7.23" x="477.2524" y="582.2334">1</text><text fill="#000000" font-family="sans-serif" font-size="13" lengthAdjust="spacing" textLength="5.0591" x="449.8217" y="627.7265">*</text></g><!--link CarEntry to Reminder--><g class="link" data-entity-1="CarEntry" data-entity-2="Reminder" data-source-line="80" data-uid="lnk14" id="link_CarEntry_Reminder"><path codeLine="80" d="M524.03,560.6694 C522.95,635.6394 527.84,729.2494 551,809.6094 C558.67,836.2294 571.2,863.1794 584.75,887.5794" fill="none" id="CarEntry-Reminder" style="stroke:#181818;stroke-width:1;"/><text fill="#000000" font-family="sans-serif" font-size="13" lengthAdjust="spacing" textLength="59.979" x="552" y="729.6045">may_have</text><text fill="#000000" font-family="sans-serif" font-size="13" lengthAdjust="spacing" textLength="7.23" x="516.3496" y="582.1912">1</text><text fill="#000000" font-family="sans-serif" font-size="13" lengthAdjust="spacing" textLength="5.0591" x="574.3004" y="876.6035">*</text></g><!--link CarEntry to ExtraCost--><g class="link" data-entity-1="CarEntry" data-entity-2="ExtraCost" data-source-line="81" data-uid="lnk15" id="link_CarEntry_ExtraCost"><path codeLine="81" d="M448.27,503.7694 C406.18,544.0494 354.68,593.6694 309,638.6094 C303.54,643.9794 297.91,649.5594 292.26,655.1794" fill="none" id="CarEntry-ExtraCost" style="stroke:#181818;stroke-width:1;"/><text fill="#000000" font-family="sans-serif" font-size="13" lengthAdjust="spacing" textLength="20.96" x="359" y="605.1045">has</text><text fill="#000000" font-family="sans-serif" font-size="13" lengthAdjust="spacing" textLength="7.23" x="433.139" y="508.0748">1</text><text fill="#000000" font-family="sans-serif" font-size="13" lengthAdjust="spacing" textLength="5.0591" x="300.3199" y="643.8197">*</text></g><!--link ServiceItem to Reminder--><g class="link" data-entity-1="ServiceItem" data-entity-2="Reminder" data-source-line="82" data-uid="lnk16" id="link_ServiceItem_Reminder"><path codeLine="82" d="M442.03,809.8694 C453.09,826.5494 465.6,843.2894 479,857.6094 C503.71,884.0094 534.74,908.5394 563.45,928.6694" fill="none" id="ServiceItem-Reminder" style="stroke:#181818;stroke-width:1;"/><text fill="#000000" font-family="sans-serif" font-size="13" lengthAdjust="spacing" textLength="43.3481" x="480" y="854.1045">triggers</text><text fill="#000000" font-family="sans-serif" font-size="13" lengthAdjust="spacing" textLength="7.23" x="438.7929" y="831.4257">1</text><text fill="#000000" font-family="sans-serif" font-size="13" lengthAdjust="spacing" textLength="21.6836" x="533.7112" y="920.5225">0..1</text></g><!--link FuelEntry to Reminder--><g class="link" data-entity-1="FuelEntry" data-entity-2="Reminder" data-source-line="83" data-uid="lnk17" id="link_FuelEntry_Reminder"><path codeLine="83" d="M671.19,801.2294 C667.71,828.1994 663.76,858.8694 660.11,887.1494" fill="none" id="FuelEntry-Reminder" style="stroke:#181818;stroke-width:1;"/><text fill="#000000" font-family="sans-serif" font-size="13" lengthAdjust="spacing" textLength="68.6372" x="666" y="854.1045">may_trigger</text><text fill="#000000" font-family="sans-serif" font-size="13" lengthAdjust="spacing" textLength="7.23" x="663.0228" y="822.3365">1</text><text fill="#000000" font-family="sans-serif" font-size="13" lengthAdjust="spacing" textLength="21.6836" x="639.2529" y="876.7799">0..1</text></g><!--link FirebaseHelper to CarEntry--><g class="link" data-entity-1="FirebaseHelper" data-entity-2="CarEntry" data-source-line="85" data-uid="lnk18" id="link_FirebaseHelper_CarEntry"><path codeLine="85" d="M542.51,198.7294 C541.45,223.5194 540.4264,247.6049 539.1464,277.5249" fill="none" id="FirebaseHelper-to-CarEntry" style="stroke:#181818;stroke-width:1;stroke-dasharray:7,7;"/><polygon fill="#181818" points="538.89,283.5194,543.271,274.6986,539.1037,278.5239,535.2783,274.3566,538.89,283.5194" style="stroke:#181818;stroke-width:1;"/></g><!--link FirebaseHelper to FuelEntry--><g class="link" data-entity-1="FirebaseHelper" data-entity-2="FuelEntry" data-source-line="86" data-uid="lnk19" id="link_FirebaseHelper_FuelEntry"><path codeLine="86" d="M608.76,198.7194 C619.13,211.2094 628.57,225.0594 635,239.6094 C694.25,373.5994 694.6314,542.4409 688.5214,640.9609" fill="none" id="FirebaseHelper-to-FuelEntry" style="stroke:#181818;stroke-width:1;stroke-dasharray:7,7;"/><polygon fill="#181818" points="688.15,646.9494,692.6994,638.2142,688.4595,641.959,684.7148,637.719,688.15,646.9494" style="stroke:#181818;stroke-width:1;"/></g><!--link FirebaseHelper to ServiceItem--><g class="link" data-entity-1="FirebaseHelper" data-entity-2="ServiceItem" data-source-line="87" data-uid="lnk20" id="link_FirebaseHelper_ServiceItem"><path codeLine="87" d="M461.51,198.8394 C449.41,210.9294 438.52,224.6194 431,239.6094 C367.02,367.1294 371.3486,531.7827 382.0086,632.5227" fill="none" id="FirebaseHelper-to-ServiceItem" style="stroke:#181818;stroke-width:1;stroke-dasharray:7,7;"/><polygon fill="#181818" points="382.64,638.4894,385.6707,629.1184,382.1139,633.5171,377.7151,629.9603,382.64,638.4894" style="stroke:#181818;stroke-width:1;"/></g><!--link FirebaseHelper to Reminder--><g class="link" data-entity-1="FirebaseHelper" data-entity-2="Reminder" data-source-line="88" data-uid="lnk21" id="link_FirebaseHelper_Reminder"><path codeLine="88" d="M640.92,198.7994 C662.47,213.6594 681.05,228.5494 688,239.6094 C783.5,391.6294 736.96,459.6294 751,638.6094 C758.62,735.7094 781.86,768.2994 743,857.6094 C738.63,867.6594 736.4013,872.4974 730.4713,882.1474" fill="none" id="FirebaseHelper-to-Reminder" style="stroke:#181818;stroke-width:1;stroke-dasharray:7,7;"/><polygon fill="#181818" points="727.33,887.2594,735.45,881.6857,729.9478,882.9994,728.634,877.4972,727.33,887.2594" style="stroke:#181818;stroke-width:1;"/></g><!--link DateUtils to ServiceItem--><g class="link" data-entity-1="DateUtils" data-entity-2="ServiceItem" data-source-line="89" data-uid="lnk22" id="link_DateUtils_ServiceItem"><path codeLine="89" d="M842.62,172.6694 C831.83,258.0094 790.24,492.0694 650,608.6094 C603.4,647.3394 572.48,614.2394 517,638.6094 C498.6,646.6894 485.0609,654.3292 468.2109,665.7192" fill="none" id="DateUtils-to-ServiceItem" style="stroke:#181818;stroke-width:1;stroke-dasharray:7,7;"/><polygon fill="#181818" points="463.24,669.0794,472.9364,667.3531,467.3824,666.2793,468.4562,660.7253,463.24,669.0794" style="stroke:#181818;stroke-width:1;"/></g><!--link CalendarWidget to Reminder--><g class="link" data-entity-1="CalendarWidget" data-entity-2="Reminder" data-source-line="90" data-uid="lnk23" id="link_CalendarWidget_Reminder"><path codeLine="90" d="M1107.67,181.2394 C1066.51,294.8194 939.99,622.6794 772,857.6094 C760.42,873.7994 750.7812,885.4381 736.7012,900.2681" fill="none" id="CalendarWidget-to-Reminder" style="stroke:#181818;stroke-width:1;stroke-dasharray:7,7;"/><polygon fill="#181818" points="732.57,904.6194,741.6676,900.8466,736.0127,900.9933,735.866,895.3384,732.57,904.6194" style="stroke:#181818;stroke-width:1;"/></g><!--SRC=[fLKzRzim4DtvAmXFTbiBpPgX6Um43Ofqg6DqRCxYHIB23uEaqZf5_dkF-Z8fs4603XhuxlJuUBnx338ev2jhVAFtGLgplA_HIy-N13gAAF2UhoLK3ZHZUoYVe48-kxC2bP_nluppiirPWRismHrQYFEFc-2agRWKsLB34-P09EeGQG8_8BWiNbfbSyJ-DkYs7fq1tNC9s-pe6CB9PpJVT0Vkh5KSoa1ObXN0F6taImu-DgWsZSwbQphgrgaC5EXB9zjITNYp5n0mgU1yGO5NDXRcXgZVKPaIt6sFh8cGHzPCef81dJ-MoWghaQ0igRG-vDjlq3tB4cy3wdSBw95ZWUD-n1Q6shOA8x0ULSOK-cWtK4DQYjrP4sgVQ_k1MXg1xarXLoUKXTYsRz_Bf8XnUSMziVO5nTO4gL9yx_1PsiOVZtEcsHBnrt-2WnNL-p_l5RHjJ9Zy4x2oxl362L_PQpAENr7jgJdIURoH3dVWiGiD6a68OL3lxNetB_l5eWih2sFStpYh8uiFv0JpnKWmt5fBuFh58fs68UFMJ3AIyiLYREaQ_23D1mYoR75EktJzCXzhzYbs4jb5H2TKAr1e1BYVKbGuNeV3kEiGcoDPG_2zp7QnWhB6ePIZVSqkPdovvBCFisHoBtaD_cHEEbxdiyP6loG7FFogWJpfLDwnfpgkb7r8-rmK5naZjKTLHMiuwZsR6tVlyncRj4XHV1bT_5Hif3yLJ9IU2WyIsF7QftzDRZ7xYnaRkyBpxnVilgRdINGl4YVJrU38pJrP7xrNv8aWJTSNX84HlEvces0F0rsHZli39xh6e-31akNl5Mhg3Rurml97wthBA1Xfur45-mS0]--></g></svg>